<?xml version="1.0" encoding="UTF-8" ?>
<!DOCTYPE svg PUBLIC "-//W3C//DTD SVG 1.1//EN" "http://www.w3.org/Graphics/SVG/1.1/DTD/svg11.dtd">
<svg width="500pt" height="500pt" viewBox="0 0 500 500" version="1.1" xmlns="http://www.w3.org/2000/svg">
<g id="#000000ff">
</g>
<g id="#8921ffff">
<path fill="#8921ff" opacity="1.00" d=" M 245.32 23.38 C 248.93 21.57 253.23 22.46 256.59 24.42 C 316.04 58.63 375.35 93.08 434.84 127.23 C 440.32 130.58 448.53 133.22 448.59 140.94 C 448.41 212.94 448.52 284.98 448.52 356.99 C 448.97 360.82 447.95 365.24 444.30 367.20 C 383.04 402.64 321.72 437.97 260.44 473.39 C 257.88 474.79 255.46 476.48 252.73 477.53 C 250.00 478.53 247.02 477.74 244.62 476.30 C 227.12 466.63 209.85 456.55 192.61 446.42 C 151.96 422.65 111.07 399.28 70.33 375.66 C 64.70 372.41 58.25 370.12 53.82 365.15 C 51.54 362.70 51.14 359.22 51.23 356.02 C 51.78 283.74 51.34 211.44 51.53 139.15 C 51.71 134.34 56.62 132.22 60.21 130.16 C 117.02 97.27 174.02 64.71 230.63 31.49 C 235.52 28.78 240.33 25.90 245.32 23.38 M 69.50 146.03 C 69.50 215.34 69.50 284.66 69.50 353.97 C 129.63 388.78 189.84 423.47 250.00 458.22 C 310.17 423.46 370.37 388.78 430.50 353.97 C 430.50 284.65 430.50 215.34 430.50 146.03 C 370.37 111.22 310.16 76.53 250.00 41.78 C 189.83 76.53 129.63 111.22 69.50 146.03 Z" />
<path fill="#8921ff" opacity="1.00" d=" M 173.70 157.51 C 182.96 157.47 192.21 157.52 201.47 157.49 C 200.41 164.96 199.88 172.50 199.74 180.05 C 199.77 196.07 199.73 212.09 199.76 228.11 C 221.48 222.72 242.93 216.26 264.04 208.85 C 280.06 203.26 295.97 197.04 310.47 188.13 C 313.93 196.11 317.34 204.11 320.70 212.13 C 309.42 216.69 298.33 221.72 286.87 225.84 C 258.30 236.22 229.10 244.82 199.74 252.64 C 199.77 268.44 199.73 284.25 199.76 300.06 C 199.80 304.34 200.42 309.18 203.85 312.16 C 208.01 315.46 213.45 316.38 218.57 317.13 C 231.97 318.65 245.47 318.47 258.93 318.16 C 281.47 317.15 304.21 315.87 326.23 310.60 C 326.29 319.70 326.23 328.81 326.26 337.92 C 295.00 341.93 263.42 342.77 231.94 342.47 C 221.23 341.95 210.35 341.74 199.91 339.06 C 192.14 337.01 184.35 333.04 180.00 326.02 C 175.95 319.82 175.31 312.23 175.25 305.02 C 175.25 261.67 175.25 218.32 175.25 174.97 C 175.08 169.13 174.52 163.30 173.70 157.51 Z" />
</g>
</svg>
